<svg width="20" height="21" viewBox="0 0 20 21" fill="none" xmlns="http://www.w3.org/2000/svg">
<path d="M4.6875 6.55469C4.84375 6.71094 5.11719 6.82812 5.35156 6.82812C5.58594 6.82812 5.82031 6.71094 6.01562 6.55469C6.36719 6.16406 6.36719 5.57812 6.01562 5.22656L4.21875 3.42969C3.86719 3.07812 3.28125 3.07812 2.89062 3.42969C2.53906 3.82031 2.53906 4.40625 2.89062 4.75781L4.6875 6.55469ZM10 4.875C10.5078 4.875 10.9375 4.48438 10.9375 3.9375V1.4375C10.9375 0.929688 10.5078 0.5 10 0.5C9.45312 0.5 9.0625 0.929688 9.0625 1.4375V3.9375C9.0625 4.48438 9.45312 4.875 10 4.875ZM4.375 10.5C4.375 9.99219 3.94531 9.5625 3.4375 9.5625H0.9375C0.390625 9.5625 0 9.99219 0 10.5C0 11.0469 0.390625 11.4375 0.9375 11.4375H3.4375C3.94531 11.4375 4.375 11.0469 4.375 10.5ZM14.6094 6.82812C14.8438 6.82812 15.1172 6.71094 15.2734 6.55469L17.0703 4.75781C17.4219 4.40625 17.4219 3.82031 17.0703 3.42969C16.6797 3.07812 16.0938 3.07812 15.7422 3.42969L13.9453 5.22656C13.5938 5.57812 13.5938 6.16406 13.9453 6.55469C14.1406 6.71094 14.375 6.82812 14.6094 6.82812ZM10 16.125C9.45312 16.125 9.0625 16.5547 9.0625 17.0625V19.5625C9.0625 20.1094 9.45312 20.5 10 20.5C10.5078 20.5 10.9375 20.1094 10.9375 19.5625V17.0625C10.9375 16.5547 10.5078 16.125 10 16.125ZM4.6875 14.4844L2.89062 16.2812C2.53906 16.6328 2.53906 17.2188 2.89062 17.6094C3.08594 17.7656 3.32031 17.8828 3.55469 17.8828C3.82812 17.8828 4.0625 17.7656 4.21875 17.6094L6.01562 15.8125C6.36719 15.4609 6.36719 14.875 6.01562 14.4844C5.625 14.1328 5.03906 14.1328 4.6875 14.4844ZM19.0625 9.5625H16.5625C16.0156 9.5625 15.625 9.99219 15.625 10.5C15.625 11.0469 16.0156 11.4375 16.5625 11.4375H19.0625C19.5703 11.4375 20 11.0469 20 10.5C20 9.99219 19.5703 9.5625 19.0625 9.5625ZM15.2734 14.4844C14.9219 14.1328 14.3359 14.1328 13.9453 14.4844C13.5938 14.875 13.5938 15.4609 13.9453 15.8125L15.7422 17.6094C15.8984 17.7656 16.1328 17.8828 16.4062 17.8828C16.6406 17.8828 16.875 17.7656 17.0703 17.6094C17.4219 17.2188 17.4219 16.6328 17.0703 16.2812L15.2734 14.4844ZM10 6.125C7.57812 6.125 5.625 8.11719 5.625 10.5C5.625 12.9219 7.57812 14.875 10 14.875C12.3828 14.875 14.375 12.9219 14.375 10.5C14.375 8.11719 12.3828 6.125 10 6.125Z" fill="black"/>
</svg>
